<svg width="40" height="40" viewBox="0 0 40 40" fill="none" xmlns="http://www.w3.org/2000/svg">
<path d="M14.9011 28.4981L17.027 29.8751L19.6258 28.1925L17.4998 26.8155V6.60259L15.0289 5L14.812 5.14023L5 11.4977V14.8649L14.9011 8.44775V28.4981Z" fill="#A3A3A3"/>
<path d="M22.461 6.6024V27.8127L15.0291 32.6295L7.59716 27.8127V14.6403L5 16.3229V28.4979L15.0291 34.9974L25.0579 28.4979V8.44755L34.9606 14.8647V11.4975L24.9317 5L22.461 6.6024Z" fill="#A3A3A3"/>
<path d="M23.7429 30.8368L21.1441 32.5214L24.9712 35L35.0001 28.5005V16.3255L32.4013 14.6427V26.8179L24.971 31.6347L23.7429 30.8368Z" fill="#A3A3A3"/>
</svg>
