<svg width="28" height="32" viewBox="0 0 28 32" fill="none" xmlns="http://www.w3.org/2000/svg">
<path d="M0 14.9416L13.9794 1.70132V0.0469971L0 13.2873V14.9416Z" fill="#A3A3A3"/>
<path d="M0 17.5743V19.2286L13.9794 5.98831V4.33398L0 17.5743Z" fill="#A3A3A3"/>
<path d="M0 21.8161V23.4723L13.9794 10.2301V8.57581L0 21.8161Z" fill="#A3A3A3"/>
<path d="M0 26.1038V27.7582L13.9794 14.5179V12.8635L0 26.1038Z" fill="#A3A3A3"/>
<path d="M13.9794 17.1055L0 30.3458V32.0001L13.9794 18.7598V17.1055Z" fill="#A3A3A3"/>
<path d="M28 13.2848L15.093 1.06055V2.71488L28 14.9392V13.2848Z" fill="#A3A3A3"/>
<path d="M28 17.5727L15.093 5.34839V7.00272L28 19.227V17.5727Z" fill="#A3A3A3"/>
<path d="M28 21.8145L15.093 9.59021V11.2445L28 23.4707V21.8145Z" fill="#A3A3A3"/>
<path d="M28 26.1023L15.093 13.8781V15.5324L28 27.7567V26.1023Z" fill="#A3A3A3"/>
<path d="M28 30.344L15.093 18.1198V19.7741L28 31.9984V30.344Z" fill="#A3A3A3"/>
<path d="M13.9275 18.7249L13.939 18.7135V17.0819V17.0592L13.9275 17.0705L13.914 17.0592V17.0819L13.8967 17.0989V18.7532L13.9275 18.7249Z" fill="white"/>
<path d="M13.914 12.8175V12.8402L13.8967 12.8572V14.5115L13.9275 14.4832L13.939 14.4718V12.8402V12.8175L13.9275 12.8288L13.914 12.8175Z" fill="white"/>
<path d="M13.939 8.5522V8.52954L13.9275 8.54087L13.914 8.52954V8.5522L13.8967 8.5692V10.2235L13.9275 10.1952L13.939 10.1839V8.5522Z" fill="white"/>
<path d="M13.939 4.31051V4.28784L13.9275 4.29917L13.914 4.28784V4.31051L13.8967 4.3275V5.98183L13.9275 5.9535L13.939 5.94217V4.31051Z" fill="white"/>
<path d="M13.9275 1.66566L13.939 1.65433V0.0226611V0L13.9275 0.0113306L13.914 0V0.0226611L13.8967 0.0396627V1.69399L13.9275 1.66566Z" fill="white"/>
</svg>
