<svg width="40" height="40" viewBox="0 0 40 40" fill="none" xmlns="http://www.w3.org/2000/svg">
<path d="M17.9187 8.32725C17.955 8.32785 17.9911 8.32967 18.0272 8.33189C18.2347 8.33975 18.4456 8.35225 18.6628 8.36919C19.6412 8.44078 20.5869 8.58293 21.4829 8.79265V6.51925C20.5684 6.28675 19.5912 6.13147 18.5713 6.05686C18.1976 6.02843 17.802 6.00989 17.3936 6.00182C17.2851 6.00001 17.1748 6 17.0629 6C17.0595 6 17.0561 6 17.0526 6C15.1428 6 13.1769 6.25227 11.21 6.74974C8.97513 7.31194 6.83602 8.17742 5 9.26007V31.7785C6.78964 30.8005 8.8134 30.0149 10.914 29.4864C12.5738 29.0684 14.2467 28.8133 15.8863 28.7288L15.9018 28.728H15.9091C15.9248 28.7272 15.9385 28.7266 15.9516 28.7262C16.2325 28.7122 16.5122 28.704 16.8006 28.7009V26.3961C14.6859 26.4173 12.5171 26.7042 10.3504 27.2497C9.5698 27.4467 8.81502 27.6693 8.10743 27.9111L7.30688 28.1845V27.3386V11.007V10.6252L7.6513 10.4609C8.93984 9.84587 10.3266 9.34921 11.7728 8.98463C13.2053 8.62347 14.6344 8.40407 16.021 8.33269C16.0496 8.33006 16.0742 8.32926 16.0924 8.32906C16.413 8.31292 16.736 8.30486 17.0526 8.30486C17.1698 8.30486 17.2851 8.30668 17.4003 8.3087L17.4156 8.3089C17.583 8.31293 17.7515 8.31716 17.9187 8.32725Z" fill="#A3A3A3"/>
<path d="M32.556 11.0883L33.3547 10.8185V28.377L33.0099 28.5413C31.7246 29.1537 30.3374 29.6496 28.887 30.0154C27.1034 30.4665 25.3274 30.6951 23.609 30.6951C23.078 30.6951 22.5489 30.6727 22.0365 30.6284L21.4836 30.5806V30.0257V29.9652V28.454L21.4876 28.4582V13.1637V12.5184L22.1317 12.5601C22.5999 12.5904 23.0831 12.6051 23.609 12.6051C25.809 12.6051 28.0638 12.3176 30.311 11.7505C31.0668 11.559 31.8224 11.3361 32.556 11.0883ZM23.609 10.7035C23.0792 10.7035 22.5541 10.6846 22.0482 10.6475C21.4338 10.6025 20.8234 10.5297 20.2344 10.4311C19.875 10.3702 19.5221 10.2992 19.1787 10.2188V32.4801C20.5296 32.8254 22.0175 33 23.609 33C25.5164 33 27.4823 32.7483 29.4522 32.2521C31.6838 31.6889 33.8225 30.8234 35.6596 29.7417V7.62476C33.8705 8.60256 31.8478 9.389 29.748 9.91893C27.6815 10.4396 25.6162 10.7035 23.609 10.7035Z" fill="#A3A3A3"/>
</svg>
