<svg width="100" height="100" viewBox="0 0 100 100" fill="none" xmlns="http://www.w3.org/2000/svg">
<rect x="10" y="10" width="80" height="80" rx="10" fill="#FDF3ED"/>
<path d="M28.5391 32.1472H72.1446C73.1208 32.1472 73.9606 32.8112 74.3333 33.7575H26.3504C26.7178 32.8112 27.5576 32.1472 28.5391 32.1472ZM25.075 61.159C25.6681 61.159 26.1509 60.6782 26.1509 60.0856V35.9047H74.5328V60.2284C74.5328 60.8215 75.0157 61.3017 75.6087 61.3017C76.2018 61.3017 76.6794 60.8215 76.6794 60.2284V34.8314C76.6794 32.1672 74.6482 30 72.1446 30H28.5391C26.0355 30 23.999 32.1672 23.999 34.8314V60.0856C23.999 60.6782 24.4819 61.159 25.075 61.159Z" fill="#EF7F3C"/>
<path d="M72.6125 67.6238H28.3876C26.4089 67.6238 24.745 66.266 24.2779 64.4017H58.3205V65.486C58.3205 66.0791 58.8033 66.5599 59.3964 66.5599C59.9895 66.5599 60.4672 66.0791 60.4672 65.486V64.4017H62.1677V65.486C62.1677 66.0791 62.6505 66.5599 63.2436 66.5599C63.8367 66.5599 64.3144 66.0791 64.3144 65.486V64.4017H66.0149V65.486C66.0149 66.0791 66.4978 66.5599 67.0909 66.5599C67.684 66.5599 68.1617 66.0791 68.1617 65.486V64.4017H69.8622V65.486C69.8622 66.0791 70.345 66.5599 70.9381 66.5599C71.5312 66.5599 72.0089 66.0791 72.0089 65.486V64.4017H76.7274C76.2707 66.2497 74.6017 67.6238 72.6125 67.6238ZM77.9293 62.2545H23.0707C22.4776 62.2545 22 62.7888 22 63.3819C22 66.9047 24.8658 69.771 28.3876 69.771H72.6125C76.1343 69.771 79 66.9047 79 63.3278C79 62.7347 78.5172 62.2545 77.9293 62.2545Z" fill="#EF7F3C"/>
<path d="M52.4871 48.9406C52.4871 49.3137 52.1827 49.6171 51.81 49.6171C51.4374 49.6171 51.1329 49.3137 51.1329 48.9406C51.1329 48.5674 51.4374 48.264 51.81 48.264C52.1827 48.264 52.4871 48.5674 52.4871 48.9406ZM48.9863 48.9406C48.9863 50.4978 50.2512 51.7643 51.81 51.7643C53.3689 51.7643 54.6338 50.4978 54.6338 48.9406C54.6338 47.3838 53.3689 46.1168 51.81 46.1168C50.2512 46.1168 48.9863 47.3838 48.9863 48.9406Z" fill="#EF7F3C"/>
<path d="M45.1576 48.9406C45.1576 49.3137 44.8531 49.6171 44.4805 49.6171C44.1078 49.6171 43.8034 49.3137 43.8034 48.9406C43.8034 48.5674 44.1078 48.264 44.4805 48.264C44.8531 48.264 45.1576 48.5674 45.1576 48.9406ZM41.6567 48.9406C41.6567 50.4978 42.9217 51.7643 44.4805 51.7643C46.0341 51.7643 47.3043 50.4978 47.3043 48.9406C47.3043 47.3838 46.0341 46.1168 44.4805 46.1168C42.9217 46.1168 41.6567 47.3838 41.6567 48.9406Z" fill="#EF7F3C"/>
<path d="M59.4838 48.9406C59.4838 49.3137 59.1793 49.6171 58.8067 49.6171C58.434 49.6171 58.1296 49.3137 58.1296 48.9406C58.1296 48.5674 58.434 48.264 58.8067 48.264C59.1793 48.264 59.4838 48.5674 59.4838 48.9406ZM55.9829 48.9406C55.9829 50.4978 57.2478 51.7643 58.8067 51.7643C60.3655 51.7643 61.6304 50.4978 61.6304 48.9406C61.6304 47.3838 60.3655 46.1168 58.8067 46.1168C57.2478 46.1168 55.9829 47.3838 55.9829 48.9406Z" fill="#EF7F3C"/>
</svg>
