<svg width="100" height="100" viewBox="0 0 100 100" fill="none" xmlns="http://www.w3.org/2000/svg">
<rect x="10" y="10" width="80" height="80" rx="10" fill="#FDF3ED"/>
<path d="M43.0349 52.8096C43.9373 52.9076 44.5888 53.7182 44.4909 54.6202C44.4419 55.0712 44.7678 55.4765 45.2188 55.5255C45.6698 55.5744 46.0752 55.2485 46.1241 54.7975C46.2798 53.312 45.4139 51.9084 44.0163 51.381L44.1175 50.4484C44.1665 49.9974 43.8406 49.592 43.3896 49.5431C42.9386 49.4941 42.5332 49.8201 42.4843 50.271L42.383 51.2037C40.7476 51.4405 39.544 52.857 39.5744 54.5092C39.6048 56.1614 40.8599 57.533 42.5029 57.7094C43.4053 57.8074 44.0568 58.618 43.9589 59.52C43.861 60.4219 43.0507 61.0739 42.1483 60.9759C41.2463 60.878 40.5944 60.0673 40.6924 59.1653C40.7413 58.7143 40.4154 58.309 39.9644 58.26C39.5134 58.2111 39.1081 58.537 39.0591 58.988C38.9035 60.4735 39.7698 61.8772 41.1669 62.4045L41.0657 63.3371C41.0167 63.7881 41.3427 64.1935 41.7936 64.2424C42.2446 64.2914 42.65 63.9654 42.6989 63.5145L42.7999 62.5842C44.4401 62.352 45.6492 60.9332 45.6188 59.2774C45.5884 57.6212 44.3279 56.2477 42.6803 56.0761C41.7783 55.9782 41.1264 55.1675 41.2243 54.2655C41.3223 53.3636 42.133 52.7117 43.0349 52.8096Z" fill="#EF7F3C"/>
<path d="M46.3713 44.9093L41.4715 44.3773C41.0206 44.3283 40.6152 44.6543 40.5662 45.1053C40.5173 45.5562 40.8432 45.9616 41.2942 46.0106L46.194 46.5425C46.645 46.5915 47.0503 46.2656 47.0993 45.8146C47.1483 45.3636 46.8223 44.9582 46.3713 44.9093Z" fill="#EF7F3C"/>
<path d="M43.8889 67.7749L38.9891 67.243C38.5381 67.194 38.1328 67.5199 38.0838 67.9709C38.0349 68.4219 38.3608 68.8273 38.8118 68.8762L43.7116 69.4082C44.1626 69.4572 44.5679 69.1312 44.6169 68.6802C44.6658 68.2292 44.3399 67.8239 43.8889 67.7749Z" fill="#EF7F3C"/>
<path d="M71.1378 58.7527L61.4033 36.6879C62.2205 36.0363 62.9615 35.2941 63.6116 34.4755C65.2123 32.4183 65.6828 30.3517 64.9355 28.6579C63.4485 25.2863 57.6616 24.6838 51.761 27.2861C50.9769 27.6379 50.216 28.039 49.4827 28.4871L48.9048 27.6675C48.2155 26.6921 47.1409 26.0591 45.9535 25.9293C44.7663 25.8013 43.5809 26.189 42.6983 26.9936L32.6724 36.1409C31.9228 36.8245 31.4486 37.7586 31.3395 38.7675L28.5503 64.4571C28.1146 68.5149 31.0453 72.1599 35.1021 72.6047L46.5349 73.846C50.5926 74.2821 54.2377 71.3511 54.6825 67.2943L57.4717 41.6047C57.5555 40.8178 57.4122 40.0232 57.0595 39.3148L57.0659 39.3155C58.1037 38.8569 59.1006 38.3111 60.0457 37.6843L69.6347 59.4157C70.9177 62.3215 69.6018 65.7168 66.6954 66.9989L56.1739 71.6404C55.7114 71.8419 55.2238 71.9814 54.7245 72.0547C54.2761 72.1234 53.9679 72.5426 54.0366 72.991C54.1049 73.4394 54.5241 73.7476 54.973 73.6789C55.6136 73.5826 56.2391 73.4024 56.8329 73.1429L67.3544 68.5015C71.092 66.8549 72.7864 62.4896 71.1378 58.7527ZM53.0493 67.117C52.7031 70.2723 49.8683 72.5518 46.7122 72.2128L35.2794 70.9715C32.1245 70.6253 29.8446 67.7905 30.1836 64.6344L32.9728 38.9448C33.0391 38.3339 33.326 37.7684 33.7801 37.3541L43.8058 28.208C44.3397 27.7201 45.0572 27.4849 45.7761 27.5626C46.495 27.6411 47.1457 28.0248 47.5624 28.6159L54.547 38.5066C52.6331 39.1678 50.5954 39.3932 48.5835 39.1663C48.6428 38.9658 48.6864 38.7607 48.7141 38.5535C48.9565 36.2992 47.3281 34.2746 45.0743 34.0271C44.9843 34.0201 44.8938 34.0285 44.8066 34.0517C44.4006 33.9563 43.9885 34.1843 43.8529 34.5787C43.441 35.6632 43.4551 36.8634 43.892 37.938C44.3371 38.8957 45.1078 39.664 46.0669 40.1054C45.2802 40.6809 44.2273 40.7356 43.3849 40.2455C42.5421 39.755 42.0699 38.8125 42.1811 37.8442C42.23 37.3933 41.9041 36.9879 41.4531 36.9389C41.0021 36.89 40.5968 37.2159 40.5478 37.6669C40.3493 39.477 41.3676 41.2013 43.049 41.9011C44.73 42.6009 46.6712 42.1084 47.8155 40.6919C48.1332 40.7607 48.4542 40.8137 48.7775 40.85C51.0646 41.0285 53.3635 40.708 55.5149 39.9108C55.7802 40.3697 55.8932 40.9004 55.8384 41.4274L53.0493 67.117ZM47.0809 38.3762C47.0647 38.4955 47.0398 38.6134 47.0062 38.7292C46.3061 38.4636 45.731 37.9448 45.3954 37.275C45.1933 36.7879 45.1422 36.2514 45.2484 35.7348C46.4287 36.0409 47.2077 37.1635 47.0809 38.3762ZM56.4028 37.8052C56.3163 37.8438 56.2301 37.8756 56.1434 37.9126L50.4356 29.8291C51.0769 29.4441 51.741 29.0982 52.4237 28.7931C57.3125 26.6353 62.3542 26.8789 63.431 29.3273C63.9239 30.4427 63.5268 31.9157 62.3139 33.4737C61.8357 34.0774 61.2997 34.6328 60.713 35.1315L60.7062 35.1159C60.2975 34.1875 59.5628 33.4405 58.6415 33.0153L55.5609 31.5871C55.1522 31.4124 54.6786 31.5945 54.4924 31.9979C54.3057 32.4017 54.4744 32.8803 54.8729 33.0781L57.9541 34.5008C58.5115 34.7586 58.9559 35.2106 59.2039 35.7725L59.3729 36.1552C58.4363 36.7971 57.4418 37.3499 56.4025 37.8076L56.4028 37.8052Z" fill="#EF7F3C"/>
<path d="M57.3731 58.7514C57.5561 59.1662 58.0411 59.3544 58.456 59.1711L64.4685 56.5189C64.739 56.4018 64.9258 56.1486 64.9585 55.8556C64.9907 55.5625 64.8638 55.2748 64.6256 55.1013C64.3871 54.9277 64.0743 54.895 63.8054 55.0159L57.7929 57.6681C57.3781 57.8514 57.1899 58.3361 57.3731 58.7514Z" fill="#EF7F3C"/>
<path d="M57.8586 63.9209C58.0411 64.3361 58.5261 64.5247 58.9414 64.3415L66.4569 61.0262C66.8721 60.8433 67.0603 60.3582 66.8771 59.9429C66.6942 59.5277 66.2091 59.3395 65.7939 59.5223L58.2784 62.8377C57.8636 63.021 57.6754 63.5057 57.8586 63.9209Z" fill="#EF7F3C"/>
<path d="M59.3856 54.1527C59.5288 54.1683 59.6737 54.1457 59.8059 54.0874L62.8119 52.7612C63.0824 52.6442 63.2693 52.3909 63.3019 52.0979C63.334 51.8053 63.2072 51.5172 62.969 51.3436C62.7309 51.1701 62.4177 51.1373 62.1488 51.2582L59.1428 52.5844C58.8025 52.7346 58.6057 53.0941 58.6626 53.4618C58.7196 53.829 59.016 54.1126 59.3856 54.1527Z" fill="#EF7F3C"/>
</svg>
