<svg width="100" height="100" viewBox="0 0 100 100" fill="none" xmlns="http://www.w3.org/2000/svg">
<rect x="10" y="10" width="80" height="80" rx="10" fill="#FDF3ED"/>
<path d="M70.9327 70.6212H62.5206C61.1186 70.6212 59.9418 69.6949 59.5339 68.4268H73.9194C73.5115 69.6949 72.3348 70.6212 70.9327 70.6212ZM62.5206 47.0786H70.9327C72.6705 47.0786 74.0842 48.4923 74.0842 50.2305V66.5111H59.3691V50.2305C59.3691 48.4923 60.7828 47.0786 62.5206 47.0786ZM70.9327 45.1628H62.5206C59.7264 45.1628 57.4534 47.4363 57.4534 50.2305V67.4692C57.4534 70.2634 59.7264 72.5369 62.5206 72.5369H70.9327C73.727 72.5369 76 70.2634 76 67.4692V50.2305C76 47.4363 73.727 45.1628 70.9327 45.1628Z" fill="#EF7F3C"/>
<path d="M68.7327 49.1964H64.95C64.4213 49.1964 63.9924 48.7679 63.9924 48.2387C63.9924 47.7096 64.4213 47.2806 64.95 47.2806H68.7327C69.2614 47.2806 69.6904 47.7096 69.6904 48.2387C69.6904 48.7679 69.2614 49.1964 68.7327 49.1964Z" fill="#EF7F3C"/>
<path d="M67.3007 70.3752H66.1394C65.6107 70.3752 65.1818 69.9467 65.1818 69.4176C65.1818 68.8884 65.6107 68.4595 66.1394 68.4595H67.3007C67.8294 68.4595 68.2583 68.8884 68.2583 69.4176C68.2583 69.9467 67.8294 70.3752 67.3007 70.3752Z" fill="#EF7F3C"/>
<path d="M45.3828 59.8043H44.4402C43.911 59.8043 43.4821 59.3753 43.4821 58.8462C43.4821 58.317 43.911 57.8885 44.4402 57.8885H45.3828C45.9115 57.8885 46.3409 58.317 46.3409 58.8462C46.3409 59.3753 45.9115 59.8043 45.3828 59.8043Z" fill="#EF7F3C"/>
<path d="M48.1917 65.8483H41.7112V61.9222H48.1917V65.8483ZM66.0827 29H23.8239C21.7157 29 20 30.713 20 32.8183V58.1043C20 60.2093 21.7157 61.9222 23.8239 61.9222H39.7955V65.8483H35.8933C35.3646 65.8483 34.9352 66.2767 34.9352 66.8059C34.9352 67.335 35.3646 67.7635 35.8933 67.7635H54.0119C54.541 67.7635 54.97 67.335 54.97 66.8059C54.97 66.2767 54.541 65.8483 54.0119 65.8483H50.1069V61.9222H55.5609C56.0896 61.9222 56.519 61.4937 56.519 60.9646C56.519 60.4354 56.0896 60.0065 55.5609 60.0065H23.8239C22.7717 60.0065 21.9157 59.1533 21.9157 58.1043V57.7503H55.6148C56.1435 57.7503 56.5724 57.3214 56.5724 56.7922C56.5724 56.2631 56.1435 55.8346 55.6148 55.8346H21.9157V32.8183C21.9157 31.7689 22.7717 30.9157 23.8239 30.9157H66.0827C67.1316 30.9157 67.9853 31.7689 67.9853 32.8183V43.0066C67.9853 43.5358 68.4142 43.9643 68.9429 43.9643C69.472 43.9643 69.901 43.5358 69.901 43.0066V32.8183C69.901 30.713 68.188 29 66.0827 29Z" fill="#EF7F3C"/>
<path d="M44.8678 43.4372C44.5044 43.4372 44.2089 43.7327 44.2089 44.0961C44.2089 44.4594 44.5044 44.7549 44.8678 44.7549C45.2312 44.7549 45.5271 44.4594 45.5271 44.0961C45.5271 43.7327 45.2312 43.4372 44.8678 43.4372ZM44.8678 46.6707C43.448 46.6707 42.2932 45.5154 42.2932 44.0961C42.2932 42.6762 43.448 41.5215 44.8678 41.5215C46.2876 41.5215 47.4429 42.6762 47.4429 44.0961C47.4429 45.5154 46.2876 46.6707 44.8678 46.6707Z" fill="#EF7F3C"/>
<path d="M38.3288 43.4372C37.9654 43.4372 37.6699 43.7327 37.6699 44.0961C37.6699 44.4594 37.9654 44.7549 38.3288 44.7549C38.6917 44.7549 38.9872 44.4594 38.9872 44.0961C38.9872 43.7327 38.6917 43.4372 38.3288 43.4372ZM38.3288 46.6707C36.909 46.6707 35.7542 45.5154 35.7542 44.0961C35.7542 42.6762 36.909 41.5215 38.3288 41.5215C39.7482 41.5215 40.9029 42.6762 40.9029 44.0961C40.9029 45.5154 39.7482 46.6707 38.3288 46.6707Z" fill="#EF7F3C"/>
<path d="M51.4075 43.4372C51.0441 43.4372 50.7482 43.7327 50.7482 44.0961C50.7482 44.4594 51.0441 44.7549 51.4075 44.7549C51.7709 44.7549 52.0669 44.4594 52.0669 44.0961C52.0669 43.7327 51.7709 43.4372 51.4075 43.4372ZM51.4075 46.6707C49.9877 46.6707 48.8329 45.5154 48.8329 44.0961C48.8329 42.6762 49.9877 41.5215 51.4075 41.5215C52.8273 41.5215 53.9821 42.6762 53.9821 44.0961C53.9821 45.5154 52.8273 46.6707 51.4075 46.6707Z" fill="#EF7F3C"/>
<path d="M69.3453 57.7421C69.0887 57.7421 68.8808 57.9505 68.8808 58.2067C68.8808 58.4624 69.0887 58.6707 69.3453 58.6707C69.601 58.6707 69.8089 58.4624 69.8089 58.2067C69.8089 57.9505 69.601 57.7421 69.3453 57.7421ZM69.3453 60.5865C68.0327 60.5865 66.965 59.5188 66.965 58.2067C66.965 56.8941 68.0327 55.8264 69.3453 55.8264C70.6574 55.8264 71.7246 56.8941 71.7246 58.2067C71.7246 59.5188 70.6574 60.5865 69.3453 60.5865Z" fill="#EF7F3C"/>
<path d="M64.2924 57.7421C64.0363 57.7421 63.8279 57.9505 63.8279 58.2067C63.8279 58.4624 64.0363 58.6707 64.2924 58.6707C64.5481 58.6707 64.7565 58.4624 64.7565 58.2067C64.7565 57.9505 64.5481 57.7421 64.2924 57.7421ZM64.2924 60.5865C62.9798 60.5865 61.9122 59.5188 61.9122 58.2067C61.9122 56.8941 62.9798 55.8264 64.2924 55.8264C65.6045 55.8264 66.6717 56.8941 66.6717 58.2067C66.6717 59.5188 65.6045 60.5865 64.2924 60.5865Z" fill="#EF7F3C"/>
</svg>
