<svg width="80" height="80" viewBox="0 0 80 80" fill="none" xmlns="http://www.w3.org/2000/svg">
<rect width="80" height="80" rx="10" fill="#FDF3ED"/>
<path d="M61.7404 43.3021C61.7404 50.0584 58.4688 56.5305 53.0525 60.5638C47.7299 64.5277 40.6596 65.7967 34.2564 64.0964C27.8201 62.3874 22.4175 57.6364 19.8779 51.4832C17.9365 46.7785 18.2619 41.8073 18.2619 36.8365C18.2619 36.0324 18.2619 35.2283 18.2619 34.4242C18.2619 34.0843 19.3613 34.2721 19.6339 34.2721H61.3494C61.7735 34.2721 61.7404 34.2253 61.7404 34.6362C61.7404 37.525 61.7404 40.4138 61.7404 43.3021ZM24.8508 30.0219C24.8508 23.1438 29.5197 16.5632 36.2358 14.7412C42.817 12.9562 49.673 16.2008 53.0228 22.0191C54.6338 24.8176 55.1719 27.8314 55.1719 31.0204C55.1719 31.1146 55.2028 32.0189 55.146 32.0189H50.9249C50.6985 32.0189 50.8236 31.3784 50.8236 31.1978C50.8236 30.4035 50.8197 29.6115 50.7492 28.8195C50.6628 27.8512 50.5895 26.6197 50.1588 25.7324C49.7507 24.892 48.5087 24.9096 48.1209 25.7583C47.9249 26.1874 48.0863 26.5906 48.1876 27.0196C48.3082 27.5318 48.3969 28.0512 48.4586 28.5733C48.5561 29.3973 48.5703 30.2229 48.5703 31.0512C48.5703 31.1355 48.5886 32.0189 48.555 32.0189H31.5053C31.2321 32.0189 31.681 27.881 31.7449 27.5522C32.1778 25.3166 33.1895 23.0507 35.1811 21.7966C36.3664 21.0509 37.7631 20.7579 39.1511 20.7579C40.3964 20.7579 41.6637 20.6885 42.8837 20.9859C43.6399 21.1704 44.569 21.8798 45.3214 21.372C46.2175 20.7672 45.7736 19.6839 44.9518 19.3181C43.3716 18.6154 41.7127 18.5047 40.0114 18.5047C37.328 18.5047 34.7735 18.9612 32.7269 20.8377C29.6695 23.64 29.2091 27.8474 29.2091 31.7573C29.2091 32.2183 28.698 32.0189 28.2926 32.0189C27.4929 32.0189 26.6937 32.0189 25.894 32.0189C25.6797 32.0189 24.8508 32.1566 24.8508 31.8978C24.8508 31.2727 24.8508 30.6475 24.8508 30.0219ZM62.8695 32.0189C61.096 32.0189 59.3225 32.0189 57.5545 32.0189C57.2681 32.0189 57.4279 30.349 57.4224 30.0219C57.4224 28.2665 57.1674 26.5134 56.6645 24.8314C54.7341 18.378 49.1613 13.1236 42.4111 12.1636C35.7556 11.2169 29.2355 14.4493 25.5905 20.0297C23.6981 22.9273 22.6406 26.3438 22.5993 29.807C22.5954 30.1425 22.6929 32.0189 22.5156 32.0189H17.1406C16.1035 32.0189 16.0087 32.9663 16.0087 33.7401C16.0087 35.914 16.0087 38.0884 16.0087 40.2623C16.0087 42.1768 15.9449 44.1062 16.1624 46.0113C16.5419 49.3424 17.6385 52.5792 19.3585 55.457C22.7645 61.1558 28.5283 65.2718 35.0396 66.5931C41.5244 67.9089 48.4492 66.5655 53.8721 62.7509C59.3225 58.9148 63.0017 52.8386 63.8168 46.2162C64.0536 44.2879 63.9931 42.3387 63.9931 40.4C63.9931 38.2057 63.9931 36.0115 63.9931 33.8172C63.9931 33.0307 63.949 32.0189 62.8695 32.0189Z" fill="#EF7F3C"/>
<path d="M27.2371 52.6928C27.2371 51.8017 27.2371 50.9105 27.2371 50.0194C28.2218 50.8466 29.4958 51.2955 30.7835 51.2333C31.9776 51.176 33.3429 50.1406 32.0337 49.0528C30.9889 48.1842 29.5431 47.9958 28.4719 47.1499C27.497 46.3799 27.0641 45.2486 27.2178 44.0193C27.5758 41.1525 31.0456 40.7614 33.3369 41.0561C33.5021 41.0776 34.8801 41.2731 34.8801 41.4449V43.9306C34.0099 43.3269 32.8676 43.0477 31.8156 43.1006C31.0456 43.1391 29.8554 43.4977 30.0443 44.5001C30.214 45.4001 31.5683 45.8379 32.2904 46.1353C33.2372 46.533 34.2539 47.0353 34.8592 47.8989C36.0031 49.5308 35.3598 51.9212 33.6051 52.793C31.8035 53.6875 29.0188 53.6049 27.2371 52.6928Z" fill="#EF7F3C"/>
<path d="M36.6764 52.6929C36.6764 51.8017 36.6764 50.9106 36.6764 50.0194C37.6612 50.8467 38.9351 51.2956 40.2228 51.2333C41.4174 51.176 42.7822 50.1406 41.4731 49.0528C40.4282 48.1843 38.9825 47.9959 37.9112 47.1499C36.9369 46.3799 36.5034 45.2486 36.6571 44.0193C37.0157 41.152 40.4861 40.7615 42.7767 41.0561C42.942 41.0776 44.3194 41.2731 44.3194 41.445V43.9306C43.4509 43.3259 42.3058 43.0478 41.255 43.1006C40.4855 43.1392 39.2948 43.4977 39.4837 44.5001C39.6539 45.3996 41.0082 45.8385 41.7303 46.1354C42.677 46.533 43.6932 47.0353 44.2985 47.8989C45.4425 49.5309 44.7997 51.9207 43.0444 52.7931C41.2428 53.6886 38.4587 53.6039 36.6764 52.6929Z" fill="#EF7F3C"/>
<path d="M54.2566 53.141C52.4093 53.141 50.5615 53.141 48.7142 53.141C48.5991 53.141 47.123 53.1663 47.123 53.119V41.816C47.123 41.1639 47.0052 41.1634 47.6936 41.1634C47.9084 41.1634 49.8213 41.1088 49.8213 41.2107V50.9401C49.8213 50.9654 51.6807 50.9522 51.8178 50.9522C52.6286 50.9522 53.4393 50.9522 54.25 50.9522C54.2632 50.9522 54.2566 52.9284 54.2566 53.141Z" fill="#EF7F3C"/>
</svg>
