<svg width="100" height="100" viewBox="0 0 100 100" fill="none" xmlns="http://www.w3.org/2000/svg">
<rect x="10" y="10" width="80" height="80" rx="10" fill="#FDF3ED"/>
<path d="M73.9019 44.4068C73.9019 42.9826 73.4145 41.6709 72.5994 40.6267V31.7368C73.8015 31.3709 74.6789 30.252 74.6789 28.9317C74.6789 27.3151 73.3636 26 71.7471 26C70.1305 26 68.8154 27.3151 68.8154 28.9317C68.8154 30.252 69.6927 31.3708 70.8948 31.7368V39.1195C69.9727 38.5681 68.8955 38.2502 67.7451 38.2502C66.6367 38.2502 65.5968 38.5461 64.6974 39.0608V31.7368C65.8995 31.3709 66.7768 30.252 66.7768 28.9317C66.7768 27.3151 65.4616 26 63.8451 26C62.2285 26 60.9133 27.3151 60.9133 28.9317C60.9133 30.252 61.7907 31.3708 62.9928 31.7368V40.497C62.1158 41.561 61.5883 42.9235 61.5883 44.4068V52.9818C60.6147 50.831 59.2392 48.8502 57.4989 47.1307C53.7753 43.4517 48.853 41.4256 43.6386 41.4256C39.4281 41.4256 35.4696 43.0652 32.4922 46.0425C29.5149 49.0198 27.8753 52.9784 27.8753 57.1888C27.8753 61.4727 29.9939 65.2709 33.2383 67.5912L26.3605 72.4517C26.0573 72.6659 25.9276 73.0518 26.04 73.4057C26.1525 73.7596 26.481 74 26.8523 74H62.1513C65.8794 74 68.8167 72.9425 70.8815 70.8568C73.9097 67.7982 73.9036 63.669 73.9018 63.5031V44.4068H73.9019ZM70.5199 28.9317C70.5199 28.255 71.0705 27.7046 71.7471 27.7046C72.4238 27.7046 72.9743 28.255 72.9743 28.9317C72.9743 29.6085 72.4237 30.1589 71.7471 30.1589C71.0705 30.159 70.5199 29.6085 70.5199 28.9317ZM62.618 28.9317C62.618 28.255 63.1685 27.7046 63.8452 27.7046C64.5218 27.7046 65.0724 28.255 65.0724 28.9317C65.0724 29.6085 64.5218 30.1589 63.8452 30.1589C63.1685 30.159 62.618 29.6085 62.618 28.9317ZM29.58 57.1888C29.58 53.4336 31.0423 49.9031 33.6977 47.2477C36.353 44.5925 39.8836 43.1301 43.6388 43.1301C53.3236 43.1301 61.2416 50.7692 61.5774 60.2864L50.1942 63.7096C50.7459 62.4416 51.0521 61.0432 51.0521 59.5746C51.0521 54.895 47.245 51.0879 42.5654 51.0879C40.7063 51.0879 38.9585 51.8118 37.644 53.1264C36.3295 54.4409 35.6055 56.1887 35.6055 58.0476C35.6055 61.2119 38.1797 63.7861 41.3438 63.7861C43.9691 63.786 46.1049 61.6501 46.1049 59.0249C46.1049 56.8306 44.3197 55.0454 42.1256 55.0454C41.2297 55.0454 40.3874 55.3942 39.7539 56.0278C39.1204 56.6613 38.7715 57.5037 38.7716 58.3994C38.7716 59.9728 40.0517 61.253 41.625 61.253C42.0957 61.253 42.4773 60.8714 42.4773 60.4007C42.4773 59.9301 42.0957 59.5484 41.625 59.5484C40.9915 59.5484 40.4762 59.033 40.4762 58.3993C40.4761 57.9588 40.6476 57.5447 40.9592 57.233C41.2708 56.9215 41.685 56.75 42.1256 56.75C43.3799 56.75 44.4004 57.7705 44.4004 59.0249C44.4004 60.7104 43.0291 62.0814 41.3437 62.0815C39.1195 62.0815 37.31 60.2719 37.31 58.0476C37.31 56.6439 37.8566 55.3242 38.8492 54.3316C39.8418 53.3391 41.1615 52.7924 42.5653 52.7924C46.305 52.7924 49.3474 55.8348 49.3474 59.5745C49.3474 64.3667 45.4488 68.2655 40.6566 68.2655C34.5489 68.2655 29.58 63.2965 29.58 57.1888ZM69.6567 69.6711C67.9242 71.4124 65.399 72.2953 62.1513 72.2953H29.5352L34.6986 68.6465C34.7391 68.6179 34.7756 68.5858 34.8094 68.5519C36.5626 69.4579 38.5508 69.9701 40.6566 69.9701C44.0281 69.9701 47.0302 68.3564 48.9307 65.8611C48.969 65.8551 49.0073 65.8464 49.0454 65.835L62.6861 61.733C63.0463 61.6247 63.2929 61.293 63.2929 60.9168V44.4068C63.2929 41.952 65.2901 39.9547 67.7451 39.9547C70.2001 39.9547 72.1973 41.952 72.1973 44.4068L72.1974 63.5095C72.1975 63.5453 72.1863 67.1288 69.6567 69.6711Z" fill="#EF7F3C"/>
</svg>
